<?xml version="1.0" encoding="UTF-8" standalone="no"?>
<!-- Created with Inkscape (http://www.inkscape.org/) -->

<svg
   version="1.1"
   id="svg2"
   width="2619.4717"
   height="581.32983"
   viewBox="0 0 2619.4717 581.32983"
   sodipodi:docname="DEFORISK REV visuals.pdf"
   xmlns:inkscape="http://www.inkscape.org/namespaces/inkscape"
   xmlns:sodipodi="http://sodipodi.sourceforge.net/DTD/sodipodi-0.dtd"
   xmlns="http://www.w3.org/2000/svg"
   xmlns:svg="http://www.w3.org/2000/svg">
  <defs
     id="defs6">
    <clipPath
       clipPathUnits="userSpaceOnUse"
       id="clipPath20">
      <path
         d="M 0,3432.833 H 5303.033 V 0 H 0 Z"
         id="path18" />
    </clipPath>
    <clipPath
       clipPathUnits="userSpaceOnUse"
       id="clipPath60">
      <path
         d="m 1735.39,1625.89 h 352.08 v -121.98 h -352.08 z"
         id="path58" />
    </clipPath>
    <clipPath
       clipPathUnits="userSpaceOnUse"
       id="clipPath78">
      <path
         d="m 1836.96,1675.4 h 299.97 v -84.32 h -299.97 z"
         id="path76" />
    </clipPath>
    <clipPath
       clipPathUnits="userSpaceOnUse"
       id="clipPath96">
      <path
         d="M 2042.36,1804.42 H 2148.7 V 1673.44 H 2042.36 Z"
         id="path94" />
    </clipPath>
  </defs>
  <sodipodi:namedview
     id="namedview4"
     pagecolor="#ffffff"
     bordercolor="#666666"
     borderopacity="1.0"
     inkscape:showpageshadow="2"
     inkscape:pageopacity="0.0"
     inkscape:pagecheckerboard="0"
     inkscape:deskcolor="#d1d1d1"
     showgrid="false" />
  <g
     id="g10"
     inkscape:groupmode="layer"
     inkscape:label="Page 1"
     transform="matrix(1.3333333,0,0,-1.3333333,-2283.9136,2586.5432)">
    <g
       id="g14"
       inkscape:export-filename="logo-deforisk-large.svg"
       inkscape:export-xdpi="150"
       inkscape:export-ydpi="150">
      <g
         id="g16"
         clip-path="url(#clipPath20)">
        <g
           id="g22"
           transform="translate(2403.7659,1568.605)">
          <path
             d="m 0,0 c 25.48,0 42.771,16.835 42.771,52.325 v 190.191 c 0,35.49 -17.291,52.325 -42.771,52.325 h -35.945 c -4.095,0 -6.825,-2.73 -6.825,-6.824 V 6.825 C -42.77,2.73 -40.04,0 -35.945,0 Z m -66.885,-16.38 v 327.602 c 0,4.094 2.275,6.824 6.825,6.824 H 0 c 40.041,0 67.34,-26.845 67.34,-67.795 V 44.59 C 67.34,3.64 40.041,-23.205 0,-23.205 h -60.06 c -4.095,0 -6.825,2.73 -6.825,6.825"
             style="fill:#00983a;fill-opacity:1;fill-rule:nonzero;stroke:none"
             id="path24" />
        </g>
        <g
           id="g26"
           transform="translate(2539.3557,1552.2251)">
          <path
             d="m 0,0 v 327.602 c 0,4.094 2.275,6.824 6.825,6.824 H 93.73 c 4.096,0 6.826,-2.73 6.826,-6.824 v -8.646 c 0,-4.095 -2.73,-6.825 -6.826,-6.825 H 30.94 c -4.095,0 -6.825,-2.73 -6.825,-6.825 V 183.82 c 0,-4.094 2.73,-6.825 6.825,-6.825 h 62.79 c 4.096,0 6.826,-2.729 6.826,-6.824 v -8.646 c 0,-4.094 -2.73,-6.825 -6.826,-6.825 H 30.94 c -4.095,0 -6.825,-2.729 -6.825,-6.825 V 22.295 c 0,-4.095 2.73,-6.825 6.825,-6.825 h 62.79 c 4.096,0 6.826,-2.73 6.826,-6.825 V 0 c 0,-4.095 -2.73,-6.825 -6.826,-6.825 H 6.825 C 2.73,-6.825 0,-4.095 0,0"
             style="fill:#00983a;fill-opacity:1;fill-rule:nonzero;stroke:none"
             id="path28" />
        </g>
        <g
           id="g30"
           transform="translate(2707.7058,1552.2251)">
          <path
             d="m 0,0 v 327.602 c 0,4.094 2.275,6.824 6.825,6.824 H 93.73 c 4.096,0 6.826,-2.73 6.826,-6.824 v -8.646 c 0,-4.095 -2.73,-6.825 -6.826,-6.825 H 30.94 c -4.095,0 -6.825,-2.73 -6.825,-6.825 V 174.721 c 0,-4.095 2.73,-6.825 6.825,-6.825 h 62.79 c 4.096,0 6.826,-2.731 6.826,-6.826 v -8.644 c 0,-4.096 -2.73,-6.825 -6.826,-6.825 H 30.94 c -4.095,0 -6.825,-2.731 -6.825,-6.826 L 24.115,0 c 0,-4.095 -2.275,-6.825 -6.825,-6.825 H 6.825 C 2.73,-6.825 0,-4.095 0,0"
             style="fill:#00983a;fill-opacity:1;fill-rule:nonzero;stroke:none"
             id="path32" />
        </g>
        <g
           id="g34"
           transform="translate(2977.9763,1618.6548)">
          <path
             d="m 0,0 v 194.741 c 0,35.49 -17.29,52.325 -42.771,52.325 -25.479,0 -42.77,-16.835 -42.77,-52.325 V 0 c 0,-35.489 17.291,-52.325 42.77,-52.325 C -17.29,-52.325 0,-35.489 0,0 m -109.656,-7.734 v 210.211 c 0,40.95 26.845,67.794 66.885,67.794 40.041,0 67.34,-26.844 67.34,-67.794 V -7.734 c 0,-40.951 -27.299,-67.796 -67.34,-67.796 -40.04,0 -66.885,26.845 -66.885,67.796"
             style="fill:#00983a;fill-opacity:1;fill-rule:nonzero;stroke:none"
             id="path36" />
        </g>
        <g
           id="g38"
           transform="translate(3137.6814,1719.6655)">
          <path
             d="m 0,0 c 25.48,0 42.771,16.835 42.771,52.325 v 39.13 C 42.771,126.945 25.48,143.78 0,143.78 h -35.945 c -4.095,0 -6.825,-2.729 -6.825,-6.824 V 6.825 C -42.77,2.73 -40.04,0 -35.945,0 Z m -66.885,-167.44 v 327.601 c 0,4.095 2.275,6.824 6.825,6.824 H 0 c 40.04,0 67.341,-26.844 67.341,-67.795 v -54.6 c 0,-28.665 -13.651,-49.595 -33.671,-60.515 -2.73,-1.82 -3.64,-4.095 -2.73,-8.19 l 27.755,-140.596 c 1.366,-7.279 -1.82,-9.555 -5.46,-9.555 H 43.226 c -3.641,0 -6.826,0 -8.191,6.826 L 8.19,-30.03 c -0.91,4.095 -2.73,6.825 -6.825,6.825 h -37.31 c -4.095,0 -6.825,-2.73 -6.825,-6.825 v -137.41 c 0,-4.095 -2.275,-6.826 -6.825,-6.826 H -60.06 c -4.095,0 -6.825,2.731 -6.825,6.826"
             style="fill:#00983a;fill-opacity:1;fill-rule:nonzero;stroke:none"
             id="path40" />
        </g>
        <g
           id="g42"
           transform="translate(3267.8113,1552.2251)">
          <path
             d="m 0,0 v 327.602 c 0,4.094 2.274,6.824 6.825,6.824 H 17.29 c 4.095,0 6.825,-2.73 6.825,-6.824 V 0 c 0,-4.095 -2.275,-6.825 -6.825,-6.825 H 6.825 C 2.729,-6.825 0,-4.095 0,0"
             style="fill:#00983a;fill-opacity:1;fill-rule:nonzero;stroke:none"
             id="path44" />
        </g>
        <g
           id="g46"
           transform="translate(3355.6257,1610.9204)">
          <path
             d="m 0,0 v 21.84 c 0,4.095 2.275,6.825 6.825,6.825 H 17.29 c 4.096,0 6.825,-2.73 6.825,-6.825 V 7.734 c 0,-35.489 16.38,-52.325 42.771,-52.325 25.479,0 42.769,16.836 42.769,52.325 V 21.84 c 0,26.389 -27.3,50.505 -51.415,74.165 C 32.306,121.94 0,148.33 0,188.37 v 21.841 c 0,40.95 26.846,67.795 66.886,67.795 40.04,0 67.34,-26.845 67.34,-67.795 V 188.37 c 0,-4.095 -2.73,-6.824 -6.826,-6.824 h -10.92 c -4.094,0 -6.825,2.729 -6.825,6.824 v 14.106 c 0,35.49 -17.29,52.325 -42.769,52.325 -25.481,0 -42.771,-16.835 -42.771,-52.325 V 188.37 c 0,-26.39 25.026,-48.684 50.96,-74.62 23.66,-24.115 59.151,-51.415 59.151,-91.91 V 0 c 0,-40.495 -27.3,-67.796 -67.34,-67.796 C 26.846,-67.796 0,-40.495 0,0"
             style="fill:#00983a;fill-opacity:1;fill-rule:nonzero;stroke:none"
             id="path48" />
        </g>
        <g
           id="g50"
           transform="translate(3553.5515,1552.2251)">
          <path
             d="m 0,0 v 327.602 c 0,4.094 2.274,6.824 6.825,6.824 H 17.29 c 4.095,0 6.825,-2.73 6.825,-6.824 V 177.45 c 0,-4.095 4.095,-5.46 6.369,-0.455 L 94.64,327.602 c 1.82,4.094 3.64,6.824 8.19,6.824 h 12.285 c 4.095,0 6.37,-2.73 4.55,-6.824 L 63.7,195.65 c -1.365,-3.184 -1.82,-6.37 -0.455,-10.009 L 123.76,0 c 0.91,-4.095 -0.909,-6.825 -5.46,-6.825 h -12.285 c -4.095,0 -5.915,2.73 -7.28,6.825 L 49.14,148.33 c -0.911,3.641 -4.55,3.641 -5.915,0 L 26.39,109.2 c -1.366,-3.184 -2.275,-7.28 -2.275,-10.92 V 0 c 0,-4.095 -2.275,-6.825 -6.825,-6.825 H 6.825 C 2.729,-6.825 0,-4.095 0,0"
             style="fill:#00983a;fill-opacity:1;fill-rule:nonzero;stroke:none"
             id="path52" />
        </g>
        <g
           id="g54">
          <g
             id="g56" />
          <g
             id="g70">
            <g
               clip-path="url(#clipPath60)"
               opacity="0.899994"
               id="g68">
              <g
                 id="g66">
                <g
                   transform="translate(1795.0557,1625.8892)"
                   id="g64">
                  <path
                     d="m 0,0 c -12.114,-0.918 -24.353,-1.387 -36.701,-1.387 -7.699,0 -15.351,0.2 -22.962,0.559 35.669,-71.791 109.706,-121.154 195.308,-121.154 61.564,0 117.126,25.56 156.767,66.598 -20.118,-2.576 -40.624,-3.91 -61.443,-3.91 C 147.215,-59.294 68.497,-37.775 0,0"
                     style="fill:#0e953b;fill-opacity:1;fill-rule:nonzero;stroke:none"
                     id="path62" />
                </g>
              </g>
            </g>
          </g>
        </g>
        <g
           id="g72">
          <g
             id="g74" />
          <g
             id="g88">
            <g
               clip-path="url(#clipPath78)"
               opacity="0.899994"
               id="g86">
              <g
                 id="g84">
                <g
                   transform="translate(2039.6976,1673.6075)"
                   id="g82">
                  <path
                     d="m 0,0 c -7.383,-9.937 -19.174,-16.403 -32.504,-16.403 -14.125,0 -26.548,7.237 -33.799,18.197 -42.279,-21.279 -88.139,-36.469 -136.44,-44.443 58.669,-25.63 123.446,-39.88 191.562,-39.88 27.796,0 55.03,2.397 81.529,6.942 11.264,16.274 20.346,34.156 26.881,53.231 C 63.62,-18.26 31.088,-10.687 0,0"
                     style="fill:#8ac42a;fill-opacity:1;fill-rule:nonzero;stroke:none"
                     id="path80" />
                </g>
              </g>
            </g>
          </g>
        </g>
        <g
           id="g90">
          <g
             id="g92" />
          <g
             id="g106">
            <g
               clip-path="url(#clipPath96)"
               opacity="0.600006"
               id="g104">
              <g
                 id="g102">
                <g
                   transform="translate(2132.491,1804.4226)"
                   id="g100">
                  <path
                     d="m 0,0 c -26.132,-32.647 -56.44,-61.798 -90.127,-86.644 3.383,-5.919 5.344,-12.754 5.344,-20.06 0,-0.966 -0.078,-1.913 -0.144,-2.863 30.621,-10.274 62.628,-17.516 95.66,-21.419 3.543,15.595 5.476,31.803 5.476,48.471 C 16.209,-53.305 10.422,-25.458 0,0"
                     style="fill:#8ac42a;fill-opacity:1;fill-rule:nonzero;stroke:none"
                     id="path98" />
                </g>
              </g>
            </g>
          </g>
        </g>
        <g
           id="g108"
           transform="translate(1998.0673,1929.2472)">
          <path
             d="m 0,0 c -29.805,-51.678 -68.997,-97.247 -115.221,-134.433 1.088,-2.293 2.042,-4.658 2.783,-7.123 1.402,-4.663 2.176,-9.598 2.176,-14.718 0,-4.182 -0.558,-8.225 -1.507,-12.116 -5.447,-22.343 -25.539,-38.95 -49.559,-38.95 -15.645,0 -29.627,7.052 -38.995,18.132 -26.227,-13.19 -53.824,-24.054 -82.535,-32.292 -0.653,-0.187 -1.304,-0.378 -1.958,-0.562 0.62,-9.296 1.801,-18.435 3.55,-27.375 2.125,-10.859 5.045,-21.43 8.718,-31.647 6.916,-0.296 13.862,-0.479 20.852,-0.479 4.238,0 8.462,0.059 12.674,0.168 12.953,0.336 25.772,1.205 38.449,2.551 60.539,6.423 117.704,24.125 169.369,50.964 0.12,1.35 0.308,2.679 0.558,3.988 1.426,7.47 4.915,14.189 9.836,19.595 7.41,8.141 18.06,13.283 29.936,13.283 5.407,0 10.557,-1.079 15.274,-3.002 37.084,26.204 70.266,57.551 98.539,92.993 C 96.365,-53.559 52.573,-17.071 0,0"
             style="fill:#005e37;fill-opacity:1;fill-rule:nonzero;stroke:none"
             id="path110" />
        </g>
        <g
           id="g112"
           transform="translate(1930.7003,1939.9075)">
          <path
             d="m 0,0 c -51.164,0 -98.172,-17.672 -135.362,-47.182 -4.119,-3.269 -8.14,-6.655 -12.01,-10.207 -41.277,-37.895 -67.881,-91.487 -70.393,-151.32 25.71,7.982 50.483,18.086 74.136,30.081 -0.883,3.762 -1.398,7.664 -1.398,11.694 0,24.258 16.931,44.523 39.61,49.729 3.688,0.847 7.511,1.337 11.456,1.337 4.541,0 8.922,-0.65 13.113,-1.763 6.731,-1.786 12.908,-4.893 18.244,-9.056 42.866,33.992 79.762,75.172 108.898,121.713 C 31.369,-1.745 15.891,0 0,0"
             style="fill:#cc0000;fill-opacity:1;fill-rule:nonzero;stroke:none"
             id="path114" />
        </g>
        <g
           id="g116"
           transform="translate(1843.876,1741.2151)">
          <path
             d="m 0,0 c -17.148,-4.312 -34.545,6.094 -38.857,23.241 -4.312,17.148 6.094,34.545 23.242,38.857 C 1.533,66.41 18.929,56.005 23.241,38.857 27.553,21.709 17.148,4.312 0,0"
             style="fill:#4dcdea;fill-opacity:1;fill-rule:nonzero;stroke:none"
             id="path118" />
        </g>
        <g
           id="g120"
           transform="translate(2013.2417,1672.9526)">
          <path
             d="m 0,0 c -13.696,-3.444 -27.591,4.867 -31.035,18.563 -3.444,13.696 4.867,27.591 18.563,31.036 C 1.224,53.043 15.119,44.732 18.563,31.035 22.007,17.339 13.696,3.444 0,0"
             style="fill:#005f7f;fill-opacity:1;fill-rule:nonzero;stroke:none"
             id="path122" />
        </g>
      </g>
    </g>
  </g>
</svg>
